ffmpeg started on 2025-06-06 at 18:37:24
Report written to "D:\Convert\FFMetrics\reports\psnr_report-6.txt"
Log level: 32
Command line:
ffmpeg -hide_banner -nostdin -i "G:\\\xc0\xed\xe8\xec\xe5\\\xce\xed\xe3\xee\xe8\xed\xe3\xe8\\!_36_\xce\xf1\xe5\xed\xfc_2024\\DreamCast\\\xcf\xf3\xed\xe8\xf0\xf3 - \xec\xe8\xeb\xe0\xff \xf1\xeb\xe8\xe7\xfc\\[DC] Puniru wa Kawaii Slime - 01_Telegram_HEVC.mkv" -i "G:\\\xc0\xed\xe8\xec\xe5\\\xce\xed\xe3\xee\xe8\xed\xe3\xe8\\!_36_\xce\xf1\xe5\xed\xfc_2024\\DreamCast\\\xcf\xf3\xed\xe8\xf0\xf3 - \xec\xe8\xeb\xe0\xff \xf1\xeb\xe8\xe7\xfc\\[DC] Puniru wa Kawaii Slime - 01_Telegram.mp4" -lavfi "[0:v]settb=AVTB,setpts=PTS-STARTPTS,format=pix_fmts=yuv420p10,fps=24000/1001,scale=1920:1080:flags=bicubic[main];[1:v]settb=AVTB,setpts=PTS-STARTPTS,format=pix_fmts=yuv420p,fps=24000/1001,scale=1920:1080:flags=bicubic[ref];[main][ref]psnr=eof_action=endall:stats_file='D\\:/Convert/FFMetrics/logs/psnr_logfile-6.txt'" -f null -
Input #0, matroska,webm, from 'G:\Аниме\Онгоинги\!_36_Осень_2024\DreamCast\Пуниру - милая слизь\[DC] Puniru wa Kawaii Slime - 01_Telegram_HEVC.mkv':
  Metadata:
    COMPATIBLE_BRANDS: isomiso2avc1mp41
    MAJOR_BRAND     : isom
    MINOR_VERSION   : 512
    ENCODER         : Lavf61.7.100
  Duration: 00:23:56.67, start: -0.021000, bitrate: 1205 kb/s
  Stream #0:0: Video: hevc (Main 10), yuv420p10le(tv, bt709, progressive), 1920x1080 [SAR 1:1 DAR 16:9], 23.98 fps, 23.98 tbr, 1k tbn (default)
      Metadata:
        HANDLER_NAME    : VideoHandler
        VENDOR_ID       : [0][0][0][0]
        ENCODER         : Lavc61.19.100 libx265
        BPS             : 1007391
        DURATION        : 00:23:56.518708333
        NUMBER_OF_FRAMES: 34442
        NUMBER_OF_BYTES : 180892064
        _STATISTICS_WRITING_APP: mkvpropedit v66.0.0 ('Josie') 64-bit
        _STATISTICS_WRITING_DATE_UTC: 2025-06-03 11:39:11
        _STATISTICS_TAGS: BPS DURATION NUMBER_OF_FRAMES NUMBER_OF_BYTES
  Stream #0:1: Audio: aac (LC), 48000 Hz, stereo, fltp (default)
      Metadata:
        HANDLER_NAME    : SoundHandler
        VENDOR_ID       : [0][0][0][0]
        ENCODER         : Lavc61.19.100 aac
        BPS             : 193720
        DURATION        : 00:23:56.672000000
        NUMBER_OF_FRAMES: 67345
        NUMBER_OF_BYTES : 34789117
        _STATISTICS_WRITING_APP: mkvpropedit v66.0.0 ('Josie') 64-bit
        _STATISTICS_WRITING_DATE_UTC: 2025-06-03 11:39:11
        _STATISTICS_TAGS: BPS DURATION NUMBER_OF_FRAMES NUMBER_OF_BYTES
Input #1, mov,mp4,m4a,3gp,3g2,mj2, from 'G:\Аниме\Онгоинги\!_36_Осень_2024\DreamCast\Пуниру - милая слизь\[DC] Puniru wa Kawaii Slime - 01_Telegram.mp4':
  Metadata:
    major_brand     : isom
    minor_version   : 512
    compatible_brands: isomiso2avc1mp41
    encoder         : Lavf61.1.100
  Duration: 00:23:56.64, start: 0.000000, bitrate: 3649 kb/s
  Stream #1:0[0x1](und): Video: h264 (High) (avc1 / 0x31637661), yuv420p(tv, bt709, progressive), 1920x1080 [SAR 1:1 DAR 16:9], 3501 kb/s, 23.98 fps, 23.98 tbr, 24k tbn (default)
      Metadata:
        handler_name    : VideoHandler
        vendor_id       : [0][0][0][0]
        encoder         : Lavc61.3.100 h264_qsv
  Stream #1:1[0x2](und): Audio: aac (HE-AACv2) (mp4a / 0x6134706D), 48000 Hz, stereo, fltp, 144 kb/s (default)
      Metadata:
        handler_name    : SoundHandler
        vendor_id       : [0][0][0][0]
Stream mapping:
  Stream #0:0 (hevc) -> settb:default
  Stream #1:0 (h264) -> settb:default
  psnr:default -> Stream #0:0 (wrapped_avframe)
  Stream #0:1 -> #0:1 (aac (native) -> pcm_s16le (native))
Output #0, null, to 'pipe:':
  Metadata:
    COMPATIBLE_BRANDS: isomiso2avc1mp41
    MAJOR_BRAND     : isom
    MINOR_VERSION   : 512
    encoder         : Lavf61.7.100
  Stream #0:0: Video: wrapped_avframe, yuv420p10le(tv, bt709, progressive), 1920x1080 [SAR 1:1 DAR 16:9], q=2-31, 200 kb/s, 23.98 fps, 23.98 tbn
      Metadata:
        encoder         : Lavc61.19.100 wrapped_avframe
  Stream #0:1: Audio: pcm_s16le, 48000 Hz, stereo, s16, 1536 kb/s (default)
      Metadata:
        HANDLER_NAME    : SoundHandler
        VENDOR_ID       : [0][0][0][0]
        _STATISTICS_TAGS: BPS DURATION NUMBER_OF_FRAMES NUMBER_OF_BYTES
        BPS             : 193720
        DURATION        : 00:23:56.672000000
        NUMBER_OF_FRAMES: 67345
        NUMBER_OF_BYTES : 34789117
        _STATISTICS_WRITING_APP: mkvpropedit v66.0.0 ('Josie') 64-bit
        _STATISTICS_WRITING_DATE_UTC: 2025-06-03 11:39:11
        encoder         : Lavc61.19.100 pcm_s16le
frame=  192 fps=0.0 q=-0.0 size=N/A time=00:00:08.00 bitrate=N/A speed=15.3x    frame=  436 fps=421 q=-0.0 size=N/A time=00:00:18.18 bitrate=N/A speed=17.6x    frame=  693 fps=446 q=-0.0 size=N/A time=00:00:28.90 bitrate=N/A speed=18.6x    frame=  927 fps=450 q=-0.0 size=N/A time=00:00:38.66 bitrate=N/A speed=18.8x    frame= 1203 fps=466 q=-0.0 size=N/A time=00:00:50.17 bitrate=N/A speed=19.4x    frame= 1442 fps=467 q=-0.0 size=N/A time=00:01:00.14 bitrate=N/A speed=19.5x    frame= 1675 fps=463 q=-0.0 size=N/A time=00:01:09.86 bitrate=N/A speed=19.3x    frame= 1935 fps=469 q=-0.0 size=N/A time=00:01:20.70 bitrate=N/A speed=19.5x    frame= 2193 fps=472 q=-0.0 size=N/A time=00:01:31.46 bitrate=N/A speed=19.7x    frame= 2426 fps=470 q=-0.0 size=N/A time=00:01:41.18 bitrate=N/A speed=19.6x    frame= 2671 fps=471 q=-0.0 size=N/A time=00:01:51.40 bitrate=N/A speed=19.6x    frame= 2929 fps=473 q=-0.0 size=N/A time=00:02:02.16 bitrate=N/A speed=19.7x    frame= 3206 fps=478 q=-0.0 size=N/A time=00:02:13.71 bitrate=N/A speed=19.9x    frame= 3480 fps=482 q=-0.0 size=N/A time=00:02:25.14 bitrate=N/A speed=20.1x    frame= 3728 fps=482 q=-0.0 size=N/A time=00:02:35.48 bitrate=N/A speed=20.1x    frame= 3984 fps=483 q=-0.0 size=N/A time=00:02:46.16 bitrate=N/A speed=20.1x    frame= 4198 fps=479 q=-0.0 size=N/A time=00:02:55.09 bitrate=N/A speed=  20x    frame= 4384 fps=472 q=-0.0 size=N/A time=00:03:02.84 bitrate=N/A speed=19.7x    frame= 4590 fps=469 q=-0.0 size=N/A time=00:03:11.44 bitrate=N/A speed=19.5x    frame= 4812 fps=466 q=-0.0 size=N/A time=00:03:20.70 bitrate=N/A speed=19.5x    frame= 5037 fps=465 q=-0.0 size=N/A time=00:03:30.08 bitrate=N/A speed=19.4x    frame= 5229 fps=461 q=-0.0 size=N/A time=00:03:38.09 bitrate=N/A speed=19.2x    frame= 5381 fps=454 q=-0.0 size=N/A time=00:03:44.43 bitrate=N/A speed=18.9x    frame= 5563 fps=449 q=-0.0 size=N/A time=00:03:52.02 bitrate=N/A speed=18.7x    frame= 5769 fps=447 q=-0.0 size=N/A time=00:04:00.61 bitrate=N/A speed=18.7x    frame= 5975 fps=446 q=-0.0 size=N/A time=00:04:09.20 bitrate=N/A speed=18.6x    frame= 6212 fps=446 q=-0.0 size=N/A time=00:04:19.09 bitrate=N/A speed=18.6x    frame= 6466 fps=448 q=-0.0 size=N/A time=00:04:29.68 bitrate=N/A speed=18.7x    frame= 6738 fps=451 q=-0.0 size=N/A time=00:04:41.03 bitrate=N/A speed=18.8x    frame= 6964 fps=450 q=-0.0 size=N/A time=00:04:50.45 bitrate=N/A speed=18.8x    frame= 7228 fps=452 q=-0.0 size=N/A time=00:05:01.46 bitrate=N/A speed=18.9x    frame= 7477 fps=453 q=-0.0 size=N/A time=00:05:11.85 bitrate=N/A speed=18.9x    frame= 7712 fps=453 q=-0.0 size=N/A time=00:05:21.65 bitrate=N/A speed=18.9x    frame= 7959 fps=454 q=-0.0 size=N/A time=00:05:31.95 bitrate=N/A speed=18.9x    frame= 8242 fps=457 q=-0.0 size=N/A time=00:05:43.76 bitrate=N/A speed=  19x    frame= 8494 fps=457 q=-0.0 size=N/A time=00:05:54.27 bitrate=N/A speed=19.1x    frame= 8760 fps=459 q=-0.0 size=N/A time=00:06:05.36 bitrate=N/A speed=19.1x    frame= 9040 fps=461 q=-0.0 size=N/A time=00:06:17.04 bitrate=N/A speed=19.2x    frame= 9304 fps=463 q=-0.0 size=N/A time=00:06:28.05 bitrate=N/A speed=19.3x    frame= 9559 fps=463 q=-0.0 size=N/A time=00:06:38.68 bitrate=N/A speed=19.3x    frame= 9799 fps=463 q=-0.0 size=N/A time=00:06:48.69 bitrate=N/A speed=19.3x    frame=10009 fps=462 q=-0.0 size=N/A time=00:06:57.45 bitrate=N/A speed=19.3x    frame=10240 fps=462 q=-0.0 size=N/A time=00:07:07.09 bitrate=N/A speed=19.3x    frame=10479 fps=462 q=-0.0 size=N/A time=00:07:17.06 bitrate=N/A speed=19.3x    frame=10735 fps=463 q=-0.0 size=N/A time=00:07:27.73 bitrate=N/A speed=19.3x    frame=10981 fps=463 q=-0.0 size=N/A time=00:07:37.99 bitrate=N/A speed=19.3x    frame=11237 fps=464 q=-0.0 size=N/A time=00:07:48.67 bitrate=N/A speed=19.3x    frame=11500 fps=464 q=-0.0 size=N/A time=00:07:59.64 bitrate=N/A speed=19.4x    frame=11757 fps=465 q=-0.0 size=N/A time=00:08:10.36 bitrate=N/A speed=19.4x    frame=12013 fps=466 q=-0.0 size=N/A time=00:08:21.04 bitrate=N/A speed=19.4x    frame=12232 fps=465 q=-0.0 size=N/A time=00:08:30.17 bitrate=N/A speed=19.4x    frame=12509 fps=466 q=-0.0 size=N/A time=00:08:41.72 bitrate=N/A speed=19.4x    frame=12787 fps=468 q=-0.0 size=N/A time=00:08:53.32 bitrate=N/A speed=19.5x    frame=13026 fps=467 q=-0.0 size=N/A time=00:09:03.29 bitrate=N/A speed=19.5x    frame=13295 fps=469 q=-0.0 size=N/A time=00:09:14.51 bitrate=N/A speed=19.5x    frame=13573 fps=470 q=-0.0 size=N/A time=00:09:26.10 bitrate=N/A speed=19.6x    frame=13820 fps=470 q=-0.0 size=N/A time=00:09:36.40 bitrate=N/A speed=19.6x    frame=14032 fps=469 q=-0.0 size=N/A time=00:09:45.25 bitrate=N/A speed=19.6x    frame=14300 fps=470 q=-0.0 size=N/A time=00:09:56.42 bitrate=N/A speed=19.6x    frame=14547 fps=470 q=-0.0 size=N/A time=00:10:06.73 bitrate=N/A speed=19.6x    frame=14803 fps=470 q=-0.0 size=N/A time=00:10:17.40 bitrate=N/A speed=19.6x    frame=15058 fps=471 q=-0.0 size=N/A time=00:10:28.04 bitrate=N/A speed=19.6x    frame=15309 fps=471 q=-0.0 size=N/A time=00:10:38.51 bitrate=N/A speed=19.6x    frame=15548 fps=471 q=-0.0 size=N/A time=00:10:48.48 bitrate=N/A speed=19.6x    frame=15810 fps=472 q=-0.0 size=N/A time=00:10:59.40 bitrate=N/A speed=19.7x    frame=16070 fps=472 q=-0.0 size=N/A time=00:11:10.25 bitrate=N/A speed=19.7x    frame=16343 fps=473 q=-0.0 size=N/A time=00:11:21.63 bitrate=N/A speed=19.7x    frame=16607 fps=473 q=-0.0 size=N/A time=00:11:32.65 bitrate=N/A speed=19.7x    frame=16881 fps=474 q=-0.0 size=N/A time=00:11:44.07 bitrate=N/A speed=19.8x    frame=17105 fps=474 q=-0.0 size=N/A time=00:11:53.42 bitrate=N/A speed=19.8x    frame=17322 fps=473 q=-0.0 size=N/A time=00:12:02.47 bitrate=N/A speed=19.7x    frame=17545 fps=472 q=-0.0 size=N/A time=00:12:11.77 bitrate=N/A speed=19.7x    frame=17778 fps=472 q=-0.0 size=N/A time=00:12:21.49 bitrate=N/A speed=19.7x    frame=18015 fps=472 q=-0.0 size=N/A time=00:12:31.37 bitrate=N/A speed=19.7x    frame=18260 fps=472 q=-0.0 size=N/A time=00:12:41.59 bitrate=N/A speed=19.7x    frame=18524 fps=473 q=-0.0 size=N/A time=00:12:52.60 bitrate=N/A speed=19.7x    frame=18752 fps=472 q=-0.0 size=N/A time=00:13:02.11 bitrate=N/A speed=19.7x    frame=19030 fps=473 q=-0.0 size=N/A time=00:13:13.70 bitrate=N/A speed=19.7x    frame=19298 fps=474 q=-0.0 size=N/A time=00:13:24.88 bitrate=N/A speed=19.7x    frame=19552 fps=474 q=-0.0 size=N/A time=00:13:35.48 bitrate=N/A speed=19.8x    frame=19776 fps=473 q=-0.0 size=N/A time=00:13:44.82 bitrate=N/A speed=19.7x    frame=20052 fps=474 q=-0.0 size=N/A time=00:13:56.33 bitrate=N/A speed=19.8x    frame=20314 fps=474 q=-0.0 size=N/A time=00:14:07.26 bitrate=N/A speed=19.8x    frame=20579 fps=475 q=-0.0 size=N/A time=00:14:18.31 bitrate=N/A speed=19.8x    frame=20835 fps=475 q=-0.0 size=N/A time=00:14:28.99 bitrate=N/A speed=19.8x    frame=21099 fps=476 q=-0.0 size=N/A time=00:14:40.00 bitrate=N/A speed=19.8x    frame=21334 fps=475 q=-0.0 size=N/A time=00:14:49.80 bitrate=N/A speed=19.8x    frame=21585 fps=475 q=-0.0 size=N/A time=00:15:00.27 bitrate=N/A speed=19.8x    frame=21808 fps=475 q=-0.0 size=N/A time=00:15:09.57 bitrate=N/A speed=19.8x    frame=22062 fps=475 q=-0.0 size=N/A time=00:15:20.16 bitrate=N/A speed=19.8x    frame=22336 fps=476 q=-0.0 size=N/A time=00:15:31.59 bitrate=N/A speed=19.8x    frame=22606 fps=476 q=-0.0 size=N/A time=00:15:42.85 bitrate=N/A speed=19.9x    frame=22862 fps=477 q=-0.0 size=N/A time=00:15:53.53 bitrate=N/A speed=19.9x    frame=23144 fps=477 q=-0.0 size=N/A time=00:16:05.29 bitrate=N/A speed=19.9x    frame=23411 fps=478 q=-0.0 size=N/A time=00:16:16.43 bitrate=N/A speed=19.9x    frame=23665 fps=478 q=-0.0 size=N/A time=00:16:27.02 bitrate=N/A speed=19.9x    frame=23930 fps=478 q=-0.0 size=N/A time=00:16:38.08 bitrate=N/A speed=  20x    frame=24213 fps=479 q=-0.0 size=N/A time=00:16:49.88 bitrate=N/A speed=  20x    frame=24474 fps=479 q=-0.0 size=N/A time=00:17:00.76 bitrate=N/A speed=  20x    frame=24759 fps=480 q=-0.0 size=N/A time=00:17:12.65 bitrate=N/A speed=  20x    frame=25030 fps=480 q=-0.0 size=N/A time=00:17:23.95 bitrate=N/A speed=  20x    frame=25303 fps=481 q=-0.0 size=N/A time=00:17:35.34 bitrate=N/A speed=20.1x    frame=25516 fps=480 q=-0.0 size=N/A time=00:17:44.22 bitrate=N/A speed=  20x    frame=25769 fps=480 q=-0.0 size=N/A time=00:17:54.78 bitrate=N/A speed=  20x    frame=26047 fps=481 q=-0.0 size=N/A time=00:18:06.37 bitrate=N/A speed=20.1x    frame=26325 fps=481 q=-0.0 size=N/A time=00:18:17.97 bitrate=N/A speed=20.1x    frame=26493 fps=480 q=-0.0 size=N/A time=00:18:24.97 bitrate=N/A speed=  20x    frame=26666 fps=479 q=-0.0 size=N/A time=00:18:32.19 bitrate=N/A speed=  20x    frame=26896 fps=478 q=-0.0 size=N/A time=00:18:41.78 bitrate=N/A speed=19.9x    frame=27125 fps=478 q=-0.0 size=N/A time=00:18:51.33 bitrate=N/A speed=19.9x    frame=27378 fps=478 q=-0.0 size=N/A time=00:19:01.89 bitrate=N/A speed=19.9x    frame=27647 fps=478 q=-0.0 size=N/A time=00:19:13.11 bitrate=N/A speed=  20x    frame=27917 fps=479 q=-0.0 size=N/A time=00:19:24.37 bitrate=N/A speed=  20x    frame=28159 fps=479 q=-0.0 size=N/A time=00:19:34.46 bitrate=N/A speed=  20x    frame=28398 fps=479 q=-0.0 size=N/A time=00:19:44.43 bitrate=N/A speed=  20x    frame=28637 fps=479 q=-0.0 size=N/A time=00:19:54.40 bitrate=N/A speed=  20x    frame=28842 fps=478 q=-0.0 size=N/A time=00:20:02.95 bitrate=N/A speed=19.9x    frame=29028 fps=477 q=-0.0 size=N/A time=00:20:10.70 bitrate=N/A speed=19.9x    frame=29223 fps=476 q=-0.0 size=N/A time=00:20:18.84 bitrate=N/A speed=19.9x    frame=29451 fps=476 q=-0.0 size=N/A time=00:20:28.35 bitrate=N/A speed=19.8x    frame=29690 fps=476 q=-0.0 size=N/A time=00:20:38.32 bitrate=N/A speed=19.8x    frame=29944 fps=476 q=-0.0 size=N/A time=00:20:48.91 bitrate=N/A speed=19.8x    frame=30213 fps=476 q=-0.0 size=N/A time=00:21:00.13 bitrate=N/A speed=19.9x    frame=30490 fps=477 q=-0.0 size=N/A time=00:21:11.68 bitrate=N/A speed=19.9x    frame=30760 fps=477 q=-0.0 size=N/A time=00:21:22.94 bitrate=N/A speed=19.9x    frame=31022 fps=477 q=-0.0 size=N/A time=00:21:33.87 bitrate=N/A speed=19.9x    frame=31301 fps=478 q=-0.0 size=N/A time=00:21:45.51 bitrate=N/A speed=19.9x    frame=31573 fps=478 q=-0.0 size=N/A time=00:21:56.85 bitrate=N/A speed=19.9x    frame=31827 fps=478 q=-0.0 size=N/A time=00:22:07.45 bitrate=N/A speed=19.9x    frame=32059 fps=478 q=-0.0 size=N/A time=00:22:17.12 bitrate=N/A speed=19.9x    frame=32265 fps=477 q=-0.0 size=N/A time=00:22:25.71 bitrate=N/A speed=19.9x    frame=32496 fps=477 q=-0.0 size=N/A time=00:22:35.35 bitrate=N/A speed=19.9x    frame=32694 fps=477 q=-0.0 size=N/A time=00:22:43.61 bitrate=N/A speed=19.9x    frame=32904 fps=476 q=-0.0 size=N/A time=00:22:52.37 bitrate=N/A speed=19.9x    frame=33151 fps=476 q=-0.0 size=N/A time=00:23:02.67 bitrate=N/A speed=19.9x    frame=33365 fps=476 q=-0.0 size=N/A time=00:23:11.59 bitrate=N/A speed=19.8x    frame=33557 fps=475 q=-0.0 size=N/A time=00:23:19.60 bitrate=N/A speed=19.8x    frame=33727 fps=474 q=-0.0 size=N/A time=00:23:26.69 bitrate=N/A speed=19.8x    frame=33906 fps=473 q=-0.0 size=N/A time=00:23:34.16 bitrate=N/A speed=19.7x    frame=34128 fps=473 q=-0.0 size=N/A time=00:23:43.42 bitrate=N/A speed=19.7x    frame=34359 fps=472 q=-0.0 size=N/A time=00:23:53.05 bitrate=N/A speed=19.7x    [Parsed_psnr_10 @ 00000278a2c39fc0] PSNR y:48.667441 u:49.431250 v:49.403413 average:48.903298 min:35.435969 max:inf
[out#0/null @ 00000278a0324440] video:14799KiB audio:269380KiB subtitle:0KiB other streams:0KiB global headers:0KiB muxing overhead: unknown
frame=34442 fps=472 q=-0.0 Lsize=N/A time=00:23:56.51 bitrate=N/A speed=19.7x    
